<svg width="1284" height="1239" viewBox="0 0 1284 1239" fill="none" xmlns="http://www.w3.org/2000/svg">
<ellipse cx="641.813" cy="619.175" rx="640.383" ry="617.693" transform="rotate(-0.13276 641.813 619.175)" fill="#CACACA"/>
<path d="M618.871 315.875C642.387 282.711 691.613 282.711 715.129 315.875L820.07 463.873C847.774 502.944 819.838 557 771.942 557H562.058C514.162 557 486.226 502.944 513.93 463.873L618.871 315.875Z" fill="#788776"/>
<path d="M562.607 763.916C524.979 779.312 483.421 752.93 481.341 712.328L472.062 531.137C469.613 483.304 522.169 452.639 562.606 478.309L739.801 590.794C780.237 616.464 774.852 677.073 730.523 695.211L562.607 763.916Z" fill="#788776"/>
<path d="M229.565 586.225C209.104 551.094 229.473 506.281 269.396 498.596L447.553 464.3C494.585 455.246 532.237 503.047 512.418 546.65L425.57 737.722C405.751 781.325 344.98 784.39 320.875 743.002L229.565 586.225Z" fill="#788776"/>
<path d="M472.053 266.594C509.394 250.518 551.425 276.14 554.242 316.698L566.811 497.69C570.129 545.471 518.138 577.086 477.242 552.155L298.033 442.907C257.137 417.976 261.42 357.279 305.412 338.339L472.053 266.594Z" fill="#788776"/>
<ellipse cx="505" cy="491" rx="91" ry="81" fill="black"/>
</svg>
